<?xml version="1.0" standalone="no"?>
<!DOCTYPE svg PUBLIC "-//W3C//DTD SVG 20010904//EN"
 "http://www.w3.org/TR/2001/REC-SVG-20010904/DTD/svg10.dtd">
<svg version="1.0" xmlns="http://www.w3.org/2000/svg"
 width="150.000000pt" height="150.000000pt" viewBox="0 0 150.000000 150.000000"
 preserveAspectRatio="xMidYMid meet">
<metadata>
Created by potrace 1.14, written by Peter Selinger 2001-2017
</metadata>
<g transform="translate(0.000000,150.000000) scale(0.100000,-0.100000)"
fill="#000000" stroke="none">
<path d="M409 1331 c-46 -15 -133 -76 -177 -125 -138 -150 -120 -310 57 -500
42 -46 103 -125 136 -177 33 -51 99 -134 147 -185 114 -119 166 -145 294 -152
86 -4 93 -3 155 28 39 20 93 61 141 108 101 97 128 160 128 292 0 80 -3 97
-29 148 -76 151 -222 306 -404 430 -191 130 -203 135 -322 138 -55 2 -112 0
-126 -5z"/>
</g>
</svg>
